<svg width="314" height="106" viewBox="0 0 314 106" fill="none" xmlns="http://www.w3.org/2000/svg">
<rect x="115.015" y="0.102539" width="26.0065" height="104.935" fill="white"/>
<rect x="115.015" y="0.102539" width="26.0065" height="104.935" fill="white"/>
<rect x="170.9" y="0.102539" width="25.7299" height="104.935" fill="white"/>
<rect x="170.9" y="0.102539" width="25.7299" height="104.935" fill="white"/>
<rect x="196.632" y="79.2337" width="26.6638" height="81.6163" transform="rotate(90 196.632 79.2337)" fill="white"/>
<rect x="196.632" y="79.2337" width="26.6638" height="81.6163" transform="rotate(90 196.632 79.2337)" fill="white"/>
<rect x="196.632" y="0.102539" width="26.6638" height="81.6163" transform="rotate(90 196.632 0.102539)" fill="white"/>
<rect x="196.632" y="0.102539" width="26.6638" height="81.6163" transform="rotate(90 196.632 0.102539)" fill="white"/>
<path d="M38.2891 0.10254L58.9604 15.9792L21.3513 68.5652L0.679913 52.6886L38.2891 0.10254Z" fill="white"/>
<path d="M38.2891 0.10254L58.9604 15.9792L21.3513 68.5652L0.679913 52.6886L38.2891 0.10254Z" fill="white"/>
<path d="M49.4453 0.10254L75.1752 0.102539L75.1752 102.17H49.4453L49.4453 0.10254Z" fill="white"/>
<path d="M49.4453 0.10254L75.1752 0.102539L75.1752 102.17H49.4453L49.4453 0.10254Z" fill="white"/>
<path d="M75.1748 0.102539L75.1748 26.7663L38.3783 26.7663L38.3783 0.102536L75.1748 0.102539Z" fill="white"/>
<path d="M75.1748 0.102539L75.1748 26.7663L38.3783 26.7663L38.3783 0.102536L75.1748 0.102539Z" fill="white"/>
<path d="M97.54 52.8162L97.54 79.1731L0.616969 79.1731L0.61697 52.8162L97.54 52.8162Z" fill="white"/>
<path d="M97.54 52.8162L97.54 79.1731L0.616969 79.1731L0.61697 52.8162L97.54 52.8162Z" fill="white"/>
<path d="M253.81 0.10254L274.481 15.9792L236.801 68.6647L216.129 52.788L253.81 0.10254Z" fill="white"/>
<path d="M253.81 0.10254L274.481 15.9792L236.801 68.6647L216.129 52.788L253.81 0.10254Z" fill="white"/>
<path d="M264.968 0.10254L290.698 0.102539L290.698 102.17H264.968L264.968 0.10254Z" fill="white"/>
<path d="M264.968 0.10254L290.698 0.102539L290.698 102.17H264.968L264.968 0.10254Z" fill="white"/>
<path d="M290.697 0.102539L290.697 26.7663L253.901 26.7663L253.901 0.102536L290.697 0.102539Z" fill="white"/>
<path d="M290.697 0.102539L290.697 26.7663L253.901 26.7663L253.901 0.102536L290.697 0.102539Z" fill="white"/>
<path d="M313.383 52.8162L313.383 79.1731L215.772 79.1731L215.772 52.8162L313.383 52.8162Z" fill="white"/>
<path d="M313.383 52.8162L313.383 79.1731L215.772 79.1731L215.772 52.8162L313.383 52.8162Z" fill="white"/>
</svg>
