<svg width="14" height="15" viewBox="0 0 14 15" fill="none" xmlns="http://www.w3.org/2000/svg">
<path d="M1.5 6.5C0.947715 6.5 0.5 6.94772 0.5 7.5C0.5 8.05228 0.947715 8.5 1.5 8.5V6.5ZM13.2071 8.20711C13.5976 7.81658 13.5976 7.18342 13.2071 6.79289L6.84315 0.428932C6.45262 0.0384078 5.81946 0.0384078 5.42893 0.428932C5.03841 0.819457 5.03841 1.45262 5.42893 1.84315L11.0858 7.5L5.42893 13.1569C5.03841 13.5474 5.03841 14.1805 5.42893 14.5711C5.81946 14.9616 6.45262 14.9616 6.84315 14.5711L13.2071 8.20711ZM1.5 8.5H12.5V6.5H1.5V8.5Z" fill="white"/>
</svg>
