<svg width="42" height="42" viewBox="0 0 42 42" fill="none" xmlns="http://www.w3.org/2000/svg">
<g clip-path="url(#clip0_56_560)">
<path d="M0 0V42H42V0H0ZM6.52666 17.3549H17.2113C18.3043 17.3626 19.4532 17.7829 20.3336 18.593C21.144 19.3931 21.62 20.5406 21.6435 21.7692C21.6394 22.7127 21.4597 23.7998 20.8334 24.666C20.3958 25.2552 19.7105 25.7006 18.9544 25.9554V26.0554C19.7506 26.2545 20.5355 26.6799 21.0949 27.3832C21.7603 28.2437 21.9879 29.4044 22.0075 30.5466C21.9995 31.7583 21.58 33.056 20.6411 34.0175C19.8066 34.8374 18.6084 35.3067 17.3471 35.3325H6.52645V17.355L6.52666 17.3549ZM25.2503 17.3908H33.1969V20.3388H25.2503V17.3908ZM29.0544 21.2206C30.1632 21.2206 31.1468 21.3646 32.005 21.6538C32.8707 21.9346 33.5993 22.3735 34.1916 22.9689C34.7839 23.5559 35.2311 24.3043 35.5349 25.2145C35.9355 26.406 36.0115 27.9313 36.004 29.3238H26.7651C26.7651 30.2765 26.9544 31.0163 27.3342 31.5437C27.7214 32.0626 28.3553 32.3205 29.2362 32.3205C30.0732 32.3166 31.0535 32.0482 31.3768 31.1079C31.4603 30.8612 31.5023 30.5991 31.5024 30.3184H36.0038C35.9945 31.7488 35.5339 33.1695 34.3274 34.2225C32.9944 35.3068 31.1314 35.6161 29.3388 35.6504C28.23 35.6504 27.2279 35.5107 26.3319 35.23C25.4434 34.9407 24.6884 34.4976 24.0657 33.9021C23.443 33.3067 22.9643 32.5582 22.6302 31.6565C22.296 30.7463 22.1277 29.671 22.1277 28.4291C22.1277 27.2212 22.2908 26.1675 22.6174 25.2658C22.9439 24.3641 23.4068 23.6157 24.0067 23.0202C24.6143 22.4162 25.3428 21.9644 26.1934 21.6667C27.0515 21.3689 28.0062 21.2206 29.0542 21.2206L29.0544 21.2206ZM11.6766 21.2975V24.3583H15.2194C15.5387 24.3559 15.8426 24.2096 16.073 23.9507C16.2968 23.6782 16.4065 23.3193 16.414 22.9433V22.6869C16.4116 22.3476 16.2812 21.9971 16.0602 21.7051C15.8593 21.4678 15.558 21.3147 15.2194 21.2975H11.6766ZM29.2363 24.5377C28.4541 24.5377 27.8702 24.7464 27.4829 25.1632C27.1032 25.58 26.8717 26.1457 26.7882 26.8602H31.3204C31.3204 26.1372 31.1389 25.5715 30.7743 25.1632C30.4099 24.7464 29.897 24.5377 29.2363 24.5377ZM11.6766 28.0728V31.1464H15.5936C15.9093 31.1439 16.2116 30.999 16.4472 30.7516C16.6699 30.4803 16.7851 30.1197 16.7907 29.7441V29.475C16.7887 29.1326 16.6777 28.7755 16.4472 28.4804C16.2449 28.2417 15.9317 28.0921 15.5936 28.0728H11.6766Z" fill="#474747"/>
</g>
<defs>
<clipPath id="clip0_56_560">
<rect width="42" height="42" rx="10" fill="white"/>
</clipPath>
</defs>
</svg>
