<svg width="99" height="39" viewBox="0 0 99 39" fill="none" xmlns="http://www.w3.org/2000/svg">
<path d="M13.9 19.3921C13.9 21.8921 11.9 23.8921 9.4 23.8921C6.9 23.8921 4.9 21.8921 4.9 19.3921C4.9 16.8921 6.9 14.8921 9.4 14.8921H13.9V19.3921ZM18.9 0.89209H13.9V9.99209C12.2 9.99209 10.5 9.99209 9.4 9.99209C4.2 9.99209 0 14.1921 0 19.3921C0 24.5921 4.2 28.7921 9.4 28.7921C14.6 28.7921 18.8 24.5921 18.8 19.3921C18.8 16.7921 18.8 9.99209 18.8 9.99209L18.9 0.89209Z" fill="white"/>
<path d="M68.5998 23.8917C71.0998 23.8917 73.0998 21.8917 73.0998 19.3917C73.0998 16.8917 71.0998 14.8917 68.5998 14.8917C66.0998 14.8917 64.0998 16.8917 64.0998 19.3917C64.1998 21.8917 66.1998 23.8917 68.5998 23.8917ZM59.2998 19.3917C59.2998 14.1917 63.4998 9.9917 68.6998 9.9917C73.8998 9.9917 78.0998 14.1917 78.0998 19.3917C78.0998 24.5917 73.8998 28.7917 68.6998 28.7917C63.4998 28.7917 59.2998 24.5917 59.2998 19.3917Z" fill="white"/>
<path d="M93.8001 19.3917C93.8001 16.9917 91.8001 14.9917 89.4001 14.9917C87.0001 14.9917 85.0001 16.9917 85.0001 19.3917C85.0001 20.5917 85.0001 28.3917 85.0001 28.3917C82.5001 28.3917 80.1001 28.3917 80.1001 28.3917C80.1001 28.3917 80.1001 21.9917 80.1001 19.3917C80.1001 14.1917 84.3001 9.9917 89.5001 9.9917C94.7001 9.9917 98.9001 14.1917 98.9001 19.3917C98.9001 21.9917 98.9001 28.3917 98.9001 28.3917C98.9001 28.3917 96.5001 28.3917 94.0001 28.3917C93.8001 28.3917 93.8001 20.5917 93.8001 19.3917Z" fill="white"/>
<path d="M47.7998 16.1923C47.0998 15.6923 47.2998 14.8923 48.4998 14.5923C49.9998 14.1923 52.5998 14.4923 54.7998 15.4923L57.0998 12.2923C56.0998 11.4923 53.8998 10.3923 50.6998 10.1923C50.6998 10.1923 45.2998 9.49233 43.0998 13.5923C43.0998 13.5923 41.1998 17.3923 44.9998 19.7923C47.2998 21.1923 51.2998 21.7923 52.5998 22.3923C53.5998 22.9923 53.2998 24.0923 51.7998 24.3923C49.1998 24.9923 45.7998 23.4923 44.6998 22.6923L42.2998 25.9923C43.8998 27.1923 45.8998 28.2923 49.0998 28.7923C49.0998 28.7923 54.1998 29.6923 56.9998 26.1923C57.4998 25.5923 59.7998 21.2923 55.1998 18.7923C52.7998 17.4923 48.9998 16.8923 47.7998 16.1923Z" fill="white"/>
<path d="M24.8 31.9921C25 32.0921 27.3 33.6921 29.5 33.6921C34.9 33.7921 35.2 28.1921 35.2 26.8921C34.2 27.9921 32.1 28.6921 30.8 28.6921C25.6 28.6921 21.5 24.6921 21.5 19.4921C21.5 16.8921 21.5 10.3921 21.5 10.3921C21.5 10.3921 23.9 10.3921 26.4 10.3921C26.4 10.3921 26.4 18.3921 26.4 19.4921C26.4 21.8921 28.4 23.8921 30.8 23.8921C33.2 23.8921 35.2 21.8921 35.2 19.4921C35.2 18.4921 35.2 10.3921 35.2 10.3921C37.7 10.3921 40.1 10.3921 40.1 10.3921V19.4921C40.1 27.5921 40.5 35.8921 32.6 37.7921C26.7 39.1921 22.5 35.4921 22.2 35.2921L24.8 31.9921Z" fill="white"/>
</svg>
