<svg width="51" height="50" viewBox="0 0 51 50" fill="none" xmlns="http://www.w3.org/2000/svg">
<path d="M19.2475 14.6273C19.23 15.0867 19.3116 15.5888 19.4469 16.0911C19.7047 17.0468 20.1321 17.9224 20.636 18.7496C21.7839 20.6306 23.2308 22.241 24.8007 23.7361C24.9292 23.859 25.0823 23.9628 25.2462 24.0419C25.4103 24.1273 25.5742 24.1273 25.7438 24.0541C25.9077 23.9809 26.0543 23.8768 26.1774 23.7415C26.7222 23.1783 27.2608 22.6142 27.7764 22.032C28.5026 21.2049 29.1942 20.3539 29.821 19.4411C30.3896 18.6141 30.8988 17.744 31.2733 16.8006C31.6479 15.863 31.8299 14.8959 31.707 13.879C31.5019 12.201 30.8169 10.7793 29.5924 9.66448C28.1445 8.34847 26.4581 7.82155 24.5602 8.11507C21.4734 8.59345 19.2356 11.436 19.2475 14.6273Z" fill="white" style="mix-blend-mode:lighten"/>
<path d="M35.2227 37.4985C34.8342 37.5103 34.3979 37.4622 33.9618 37.3696C32.6715 37.0872 31.5755 36.5005 30.7333 35.4603C30.2211 34.8261 29.7904 34.1387 29.4193 33.4158C28.9829 32.5639 28.6183 31.6764 28.3003 30.778C27.9118 29.6914 27.5819 28.5809 27.328 27.4586C27.1869 26.8298 27.3455 26.4359 28.0409 26.2192C28.9243 25.9432 29.8142 25.6964 30.7214 25.4963C32.2234 25.1672 33.7373 24.9561 35.2815 25.0081C35.7177 25.0256 36.153 25.0724 36.5836 25.1488C37.8327 25.3665 38.8929 25.9423 39.7588 26.8526C41.2379 28.4036 41.8262 30.2543 41.4615 32.3638C40.9373 35.3781 38.2624 37.5223 35.2227 37.4985Z" fill="white"/>
<path d="M15.7676 37.4985C16.1561 37.5103 16.5924 37.4622 17.0285 37.3696C18.3188 37.0872 19.4148 36.5005 20.257 35.4603C20.7693 34.8261 21.1999 34.1387 21.571 33.4158C22.0074 32.5639 22.372 31.6764 22.69 30.778C23.0785 29.6914 23.4084 28.5809 23.6624 27.4586C23.8034 26.8298 23.6449 26.4359 22.9494 26.2192C22.066 25.9432 21.1761 25.6964 20.2689 25.4963C18.7669 25.1672 17.253 24.9561 15.7089 25.0081C15.2726 25.0256 14.8373 25.0724 14.4067 25.1488C13.1576 25.3665 12.0974 25.9423 11.2315 26.8526C9.75241 28.4036 9.1641 30.2543 9.52883 32.3638C10.053 35.3781 12.7279 37.5223 15.7676 37.4985Z" fill="white"/>
<circle cx="25.75" cy="25" r="24" stroke="white" stroke-width="2"/>
</svg>
