<svg width="51" height="44" viewBox="0 0 51 44" fill="none" xmlns="http://www.w3.org/2000/svg">
<path fill-rule="evenodd" clip-rule="evenodd" d="M29.8082 0.134138C32.1198 0.00270264 33.7809 2.49793 34.4775 4.17328C34.8745 5.126 35.2066 6.67944 34.2494 7.15052C33.5014 7.51936 32.6063 7.57672 31.5475 7.71536C29.0196 8.04395 27.4124 7.44053 26.4979 5.91101C26.2355 5.47285 25.9611 4.70044 26.124 3.93343C26.4427 2.42012 27.3781 1.21443 28.548 0.53269C28.766 0.404726 29.3128 0.162432 29.8082 0.134138Z" fill="white"/>
<path d="M22.725 9.24709C24.0792 9.24928 25.4947 9.46868 26.8137 9.81913C28.2569 10.2039 29.6137 10.7126 30.751 11.1659C32.9297 12.0353 34.5267 12.6698 34.5267 12.6698C34.5267 12.6698 35.6269 11.9098 36.0463 11.6271C37.0618 11.0019 38.0069 10.3721 39.2587 10.0995C39.6635 10.0117 40.4177 10.0081 40.795 10.0751C42.2771 10.3388 43.1767 10.9841 43.302 12.2414C43.4721 13.9313 41.3143 15.72 40.8068 16.1966C40.3528 16.622 38.1771 18.6773 35.5013 18.8919C34.1992 18.9973 32.9681 18.5685 32.0824 18.1964C31.7868 18.0718 31.0168 17.6882 31.0168 17.6882C31.0168 17.6882 29.8276 18.8203 28.7361 19.9636C27.6393 21.1117 24.9225 24.4358 24.9225 24.4423C27.921 24.2268 31.3647 25.1836 33.5484 26.0268C38.684 28.0104 43.6394 31.5009 46.9878 36.2215C48.1373 37.8444 49.2336 39.635 50.0637 41.5564C50.2912 42.0842 50.7399 43.2023 50.3403 43.6794C49.9259 44.1729 48.9714 43.5872 48.4337 43.3252C47.4558 42.8507 45.3721 41.2583 43.8662 40.0507C43.1778 39.4975 42.1144 38.5421 41.929 37.6983C41.8114 37.158 42.1389 36.452 42.252 35.8983C42.4337 35.013 41.9173 34.3291 41.5601 33.884C40.7216 32.8383 39.2837 32.1852 37.9312 31.6551C35.2463 30.5996 33.3641 30.2625 28.8125 29.6864C24.2615 29.1105 21.2152 29.4732 20.878 29.4864C20.5273 29.903 20.0764 30.4391 19.7254 30.8557C18.7571 31.8593 15.1545 35.4167 14.1126 36.2062C12.2491 37.6181 10.1671 38.9873 7.96241 40.0507C3.71865 42.0964 1.01187 41.7732 0.703861 41.4342C0.396748 41.0957 0.384917 40.1321 1.03116 38.8081C1.68333 37.4731 3.23406 35.7418 3.94912 35.0072C4.66288 34.271 5.98971 33.0534 7.79291 31.6856C10.2843 29.7942 14.0735 27.8904 15.9579 26.9653C18.5867 25.6732 21.2177 25.0528 21.8781 24.8739C25.4922 19.9069 29.3201 16.7548 29.3201 16.7548C29.3201 16.7548 27.7847 15.773 27.1365 15.3401C25.7258 14.3982 24.3358 13.3895 22.7083 12.6796C21.6836 12.2333 19.9907 11.6025 18.5255 11.9734C16.7223 12.4289 14.3484 13.7827 13.3955 14.9514C13.0784 15.3397 12.8097 16.0497 12.7036 16.6541C12.6189 17.1311 12.75 17.8264 12.6213 18.1688C12.3952 18.7691 11.4161 19.3005 10.6536 19.6349C9.61745 20.0884 8.5531 20.5566 7.37249 20.8558C6.97445 20.9559 6.27278 21.1452 6.05582 20.8509C5.76787 20.4599 6.21619 19.8737 6.36859 19.6043C6.98809 18.5048 7.73195 17.5825 8.5158 16.6471C10.9048 13.7973 13.5055 11.6734 17.1574 10.2195C18.074 9.85476 19.8337 9.24298 22.725 9.24709ZM40.569 11.7201C39.9468 11.7786 39.2639 11.8948 38.7021 12.1141C37.8723 12.4367 37.1341 12.8278 36.3732 13.2873C38.0516 13.7971 39.9819 14.0867 41.4986 13.1684C41.8676 12.9444 42.2001 12.6423 42.2161 12.2835C42.2349 11.879 41.1903 11.6621 40.569 11.7201ZM17.8594 29.8558C17.8594 29.8558 17.0189 30.0096 16.5673 30.1014C16.1166 30.194 15.0754 30.4917 14.3776 30.6732C12.468 31.1685 7.46123 33.1117 5.20959 35.3605C4.47486 36.0941 3.89806 36.9691 3.47019 38.0115C3.35277 38.2975 3.11459 38.9607 3.35392 39.3593C3.55777 39.6983 4.16286 39.773 4.68166 39.6593C5.74729 39.4259 6.70785 38.9871 7.56283 38.5161C10.7758 36.7437 13.8616 34.1701 15.7786 32.1007C16.3994 31.4302 17.1942 30.6032 17.4188 30.3532C17.6439 30.1014 17.8594 29.8558 17.8594 29.8558Z" fill="white"/>
</svg>
