<svg width="53" height="44" viewBox="0 0 53 44" fill="none" xmlns="http://www.w3.org/2000/svg">
<path d="M27.6205 24.661C27.7189 22.9063 28.5781 21.3604 29.8744 20.2645C31.1457 19.1882 32.8568 18.5303 34.7237 18.5303C36.5888 18.5303 38.2999 19.1882 39.5721 20.2645C40.8675 21.3604 41.7267 22.9063 41.826 24.6591C41.9243 26.4621 41.1996 28.137 39.9284 29.3785C38.6321 30.6414 36.7883 31.4339 34.7237 31.4339C32.6591 31.4339 30.8116 30.6414 29.5163 29.3785C28.2441 28.137 27.5212 26.4621 27.6205 24.661Z" fill="white"/>
<path d="M16.3093 28.2064C16.3213 28.8931 16.5403 30.2275 16.8688 31.2695C17.5592 33.4752 18.7302 35.5156 20.3596 37.3139C22.0317 39.1623 24.0908 40.647 26.469 41.7011C28.9688 42.8081 31.6774 43.3723 34.4908 43.3677C37.2996 43.3639 40.0082 42.7886 42.508 41.6733C44.8863 40.6089 46.9435 39.1178 48.6128 37.2685C50.2413 35.4628 51.4105 33.4186 52.1027 31.2129C52.4507 30.0985 52.6706 28.9673 52.7587 27.8325C52.845 26.7144 52.8088 25.5944 52.6502 24.4753C52.3402 22.2947 51.5858 20.2487 50.4241 18.3835C49.3616 16.6697 47.992 15.1693 46.3635 13.9064L46.3672 13.9036L29.9329 1.28486C29.9181 1.27373 29.906 1.26168 29.8903 1.25148C28.812 0.423776 26.9989 0.426565 25.813 1.25612C24.6141 2.09495 24.4768 3.48217 25.5439 4.35719L25.5392 4.36184L32.3938 9.93581L11.5018 9.95809H11.4739C9.74707 9.95995 8.08704 11.0929 7.75855 12.5247C7.42079 13.9834 8.59367 15.1934 10.3892 15.1999L10.3864 15.2064L20.9758 15.186L2.0797 29.6902C2.05558 29.7078 2.02959 29.7264 2.00732 29.744C0.2248 31.109 -0.351422 33.3786 0.771356 34.8151C1.91084 36.2756 4.33362 36.2784 6.1347 34.8234L16.4475 26.3831C16.4475 26.3831 16.2972 27.5226 16.3093 28.2064ZM42.8096 32.022C40.6847 34.1869 37.7098 35.4145 34.4908 35.421C31.2673 35.4266 28.2924 34.2101 26.1674 32.049C25.1291 30.9958 24.3664 29.7839 23.8959 28.4932C23.4347 27.2247 23.2557 25.8783 23.3744 24.5198C23.4867 23.192 23.882 21.9254 24.513 20.7794C25.1328 19.6529 25.9865 18.635 27.0406 17.7739C29.1062 16.0907 31.7359 15.1795 34.4862 15.1757C37.2393 15.172 39.8672 16.0749 41.9346 17.7526C42.9868 18.61 43.8396 19.6242 44.4595 20.7488C45.0932 21.8939 45.4857 23.1558 45.6026 24.4874C45.7196 25.844 45.5405 27.1885 45.0793 28.4579C44.6079 29.7524 43.8479 30.9642 42.8096 32.022Z" fill="white"/>
</svg>
