<svg width="51" height="50" viewBox="0 0 51 50" fill="none" xmlns="http://www.w3.org/2000/svg">
<path d="M25.6649 4.63778C25.9449 2.91256 24.7734 1.28699 23.0481 1.00698C21.3229 0.726969 19.6974 1.89854 19.4173 3.62377C19.1373 5.34899 20.3089 6.97455 22.0341 7.25457C23.7594 7.53458 25.3849 6.363 25.6649 4.63778Z" fill="black"/>
<path d="M45.7438 49.4998C48.4984 49.4998 50.7314 47.2668 50.7314 44.5123C50.7314 41.7577 48.4984 39.5247 45.7438 39.5247C42.9892 39.5247 40.7562 41.7577 40.7562 44.5123C40.7562 47.2668 42.9892 49.4998 45.7438 49.4998Z" fill="black"/>
<path d="M2.46903 46.8593C3.68428 46.8593 4.66944 45.8742 4.66944 44.6589C4.66944 43.4437 3.68428 42.4585 2.46903 42.4585C1.25377 42.4585 0.268616 43.4437 0.268616 44.6589C0.268616 45.8742 1.25377 46.8593 2.46903 46.8593Z" fill="black"/>
<path d="M22.5661 10.7722C11.866 10.7722 3.20245 19.3702 3.20245 29.9891C3.20245 40.6081 11.866 49.206 22.5661 49.206C33.2661 49.206 41.9297 40.6081 41.9297 29.9891C41.9297 19.3702 33.2661 10.7722 22.5661 10.7722ZM9.44989 22.5216L22.5315 15.0198L35.5787 22.5216V29.304L29.5729 27.3858V25.9813L22.5315 21.9393L17.3541 24.9194L35.5787 30.7085V37.4909L22.497 44.9927L9.41538 37.5252V30.7085L15.4557 32.5925V33.9969L22.497 38.039L27.7435 35.0246L9.44989 29.2698V22.5216Z" fill="white"/>
</svg>
