<svg width="65" height="30" viewBox="0 0 65 30" fill="none" xmlns="http://www.w3.org/2000/svg">
<rect y="0.555481" width="7.22225" height="28.889" fill="white"/>
<rect y="0.555481" width="7.22225" height="28.889" fill="white"/>
<rect x="21.667" y="0.555481" width="7.22225" height="28.889" fill="white"/>
<rect x="21.667" y="0.555481" width="7.22225" height="28.889" fill="white"/>
<rect x="36.1113" y="0.555481" width="7.22225" height="28.889" fill="white"/>
<rect x="36.1113" y="0.555481" width="7.22225" height="28.889" fill="white"/>
<path fill-rule="evenodd" clip-rule="evenodd" d="M21.4293 0.55549L0 29.4445H9.188L28.95 2.80317L25.7132 0.55549L21.4293 0.55549Z" fill="white"/>
<path fill-rule="evenodd" clip-rule="evenodd" d="M21.4293 0.55549L0 29.4445H9.188L28.95 2.80317L25.7132 0.55549L21.4293 0.55549Z" fill="white"/>
<path fill-rule="evenodd" clip-rule="evenodd" d="M64.9192 0.667866L64.9999 0.555481H43.3359V7.77771L59.5865 7.77771L64.9192 0.667866Z" fill="white"/>
<path fill-rule="evenodd" clip-rule="evenodd" d="M64.9192 0.667866L64.9999 0.555481H43.3359V7.77771L59.5865 7.77771L64.9192 0.667866Z" fill="white"/>
<path fill-rule="evenodd" clip-rule="evenodd" d="M54.1699 14.9999H43.3359V22.2221H48.753L54.1699 14.9999Z" fill="white"/>
<path fill-rule="evenodd" clip-rule="evenodd" d="M54.1699 14.9999H43.3359V22.2221H48.753L54.1699 14.9999Z" fill="white"/>
</svg>
