<svg width="1200" height="153" viewBox="0 0 1200 153" fill="none" xmlns="http://www.w3.org/2000/svg">
<rect x="0.00683594" y="-0.00012207" width="33.1797" height="130.102" fill="white"/>
<rect x="0.00683594" y="-0.00012207" width="33.1797" height="130.102" fill="white"/>
<rect x="100.651" y="-0.00012207" width="33.1797" height="130.102" fill="white"/>
<rect x="100.651" y="-0.00012207" width="33.1797" height="130.102" fill="white"/>
<rect x="167.01" y="-0.00012207" width="34.2857" height="130.102" fill="white"/>
<rect x="167.01" y="-0.00012207" width="34.2857" height="130.102" fill="white"/>
<path d="M723.76 -0.00012207L751.516 20.0067L666.011 132.28L621.202 132.28L723.76 -0.00012207Z" fill="white"/>
<path d="M723.76 -0.00012207L751.516 20.0067L666.011 132.28L621.202 132.28L723.76 -0.00012207Z" fill="white"/>
<rect x="798.177" y="-0.00012207" width="33.0587" height="74.47" transform="rotate(90 798.177 -0.00012207)" fill="white"/>
<rect x="798.177" y="-0.00012207" width="33.0587" height="74.47" transform="rotate(90 798.177 -0.00012207)" fill="white"/>
<rect x="798.159" y="63.6128" width="33.0588" height="107.65" transform="rotate(90 798.159 63.6128)" fill="white"/>
<rect x="798.159" y="63.6128" width="33.0588" height="107.65" transform="rotate(90 798.159 63.6128)" fill="white"/>
<rect x="798.159" y="97.0439" width="34.2857" height="95.6215" transform="rotate(-180 798.159 97.0439)" fill="white"/>
<rect x="798.159" y="97.0439" width="34.2857" height="95.6215" transform="rotate(-180 798.159 97.0439)" fill="white"/>
<rect x="1132.9" y="-0.00012207" width="34.2857" height="130.102" fill="white"/>
<rect x="1132.9" y="-0.00012207" width="34.2857" height="130.102" fill="white"/>
<rect x="1200" y="-0.00012207" width="33.0587" height="99.5392" transform="rotate(90 1200 -0.00012207)" fill="white"/>
<rect x="1200" y="-0.00012207" width="33.0587" height="99.5392" transform="rotate(90 1200 -0.00012207)" fill="white"/>
<rect x="831.339" y="-0.00012207" width="34.6544" height="130.102" fill="white"/>
<rect x="831.339" y="-0.00012207" width="34.6544" height="130.102" fill="white"/>
<rect x="896.592" y="-0.00012207" width="34.2857" height="131.169" fill="white"/>
<rect x="896.592" y="-0.00012207" width="34.2857" height="131.169" fill="white"/>
<rect x="924.979" y="98.1271" width="33.0588" height="93.6405" transform="rotate(90 924.979 98.1271)" fill="white"/>
<rect x="924.979" y="98.1271" width="33.0588" height="93.6405" transform="rotate(90 924.979 98.1271)" fill="white"/>
<rect x="1067.28" y="98.1276" width="33.0588" height="99.5392" transform="rotate(90 1067.28 98.1276)" fill="white"/>
<rect x="1067.28" y="98.1276" width="33.0588" height="99.5392" transform="rotate(90 1067.28 98.1276)" fill="white"/>
<path d="M1067.28 -0.00012207L1067.28 33.0586L967.742 33.0586L967.742 -0.000125859L1067.28 -0.00012207Z" fill="white"/>
<path d="M1067.28 -0.00012207L1067.28 33.0586L967.742 33.0586L967.742 -0.000125859L1067.28 -0.00012207Z" fill="white"/>
<path d="M1018.43 98.1125L1067.28 98.1076L1015.79 33.0763L967.588 33.0764L1018.43 98.1125Z" fill="white"/>
<path d="M1018.43 98.1125L1067.28 98.1076L1015.79 33.0763L967.588 33.0764L1018.43 98.1125Z" fill="white"/>
<rect x="924.979" y="-0.00012207" width="33.0588" height="93.6405" transform="rotate(90 924.979 -0.00012207)" fill="white"/>
<rect x="924.979" y="-0.00012207" width="33.0588" height="93.6405" transform="rotate(90 924.979 -0.00012207)" fill="white"/>
<rect x="369.405" y="-0.00012207" width="33.1797" height="130.102" fill="white"/>
<rect x="369.405" y="-0.00012207" width="33.1797" height="130.102" fill="white"/>
<rect x="234.475" y="-0.00012207" width="33.1797" height="130.102" fill="white"/>
<rect x="234.475" y="-0.00012207" width="33.1797" height="130.102" fill="white"/>
<rect x="334.014" y="97.0443" width="33.0587" height="99.5392" transform="rotate(90 334.014 97.0443)" fill="white"/>
<rect x="334.014" y="97.0443" width="33.0587" height="99.5392" transform="rotate(90 334.014 97.0443)" fill="white"/>
<rect x="334.014" y="-0.00012207" width="33.0587" height="99.5392" transform="rotate(90 334.014 -0.00012207)" fill="white"/>
<rect x="334.014" y="-0.00012207" width="33.0587" height="99.5392" transform="rotate(90 334.014 -0.00012207)" fill="white"/>
<path fill-rule="evenodd" clip-rule="evenodd" d="M99.6017 0.334044L0 129.803H42.7072L134.57 10.3941L119.545 0.334045L99.6017 0.334044Z" fill="white"/>
<path fill-rule="evenodd" clip-rule="evenodd" d="M99.6017 0.334044L0 129.803H42.7072L134.57 10.3941L119.545 0.334045L99.6017 0.334044Z" fill="white"/>
<path fill-rule="evenodd" clip-rule="evenodd" d="M403.491 45.0107L375.304 63.8842L426.388 130.288L469.096 130.288L403.491 45.0107Z" fill="white"/>
<path fill-rule="evenodd" clip-rule="evenodd" d="M403.491 45.0107L375.304 63.8842L426.388 130.288L469.096 130.288L403.491 45.0107Z" fill="white"/>
<path fill-rule="evenodd" clip-rule="evenodd" d="M714.273 68.6179L686.085 87.4913L720.532 132.267L763.239 132.267L714.273 68.6179Z" fill="white"/>
<path fill-rule="evenodd" clip-rule="evenodd" d="M714.273 68.6179L686.085 87.4913L720.532 132.267L763.239 132.267L714.273 68.6179Z" fill="white"/>
<path fill-rule="evenodd" clip-rule="evenodd" d="M407.698 79.8239L379.51 60.9505L426.4 -9.55821e-05L469.107 -9.91821e-05L407.698 79.8239Z" fill="white"/>
<path fill-rule="evenodd" clip-rule="evenodd" d="M407.698 79.8239L379.51 60.9505L426.4 -9.55821e-05L469.107 -9.91821e-05L407.698 79.8239Z" fill="white"/>
<rect x="546.731" y="-0.00012207" width="34.2857" height="130.102" fill="white"/>
<rect x="546.731" y="-0.00012207" width="34.2857" height="130.102" fill="white"/>
<path fill-rule="evenodd" clip-rule="evenodd" d="M581.021 -0.00012207L683.865 -0.000119947L683.234 0.846741L658.175 33.063L581.021 33.063L581.021 -0.00012207Z" fill="white"/>
<path fill-rule="evenodd" clip-rule="evenodd" d="M581.021 -0.00012207L683.865 -0.000119947L683.234 0.846741L658.175 33.063L581.021 33.063L581.021 -0.00012207Z" fill="white"/>
<path fill-rule="evenodd" clip-rule="evenodd" d="M632.465 66.1152H581.021L581.021 99.1784H606.748L632.465 66.1152Z" fill="white"/>
<path fill-rule="evenodd" clip-rule="evenodd" d="M632.465 66.1152H581.021L581.021 99.1784H606.748L632.465 66.1152Z" fill="white"/>
</svg>
