<svg width="56" height="40" viewBox="0 0 56 40" fill="none" xmlns="http://www.w3.org/2000/svg">
<path d="M55.25 19.1082V20.8936C55.2328 20.9905 55.2111 21.0856 55.1998 21.182C55.106 21.9587 55.0454 22.7403 54.9159 23.5111C54.4931 26.0166 53.5792 28.3453 52.2212 30.4986C50.1588 33.7678 47.3707 36.2608 43.867 37.9632C41.8448 38.9505 39.6645 39.5849 37.4228 39.8384C36.9248 39.8951 36.4273 39.946 35.9294 40H16.6074C16.5101 39.9821 16.4132 39.9536 16.315 39.9478C14.3667 39.8268 12.4921 39.3889 10.7054 38.618C6.8156 36.9397 3.91531 34.2195 2.01679 30.4754C1.17787 28.8239 0.634954 27.0418 0.412058 25.2078C0.357284 24.7619 0.303868 24.3164 0.25 23.8709V22.1386C0.26856 22.0426 0.297078 21.9466 0.302963 21.8502C0.403909 20.1857 0.750206 18.5694 1.35996 17.016C3.00091 12.8362 5.86136 9.7362 9.92638 7.72977C12.0354 6.68839 14.2834 6.14114 16.6346 6.01973C17.7857 5.96081 18.936 6.02419 20.0803 6.17551C20.184 6.18935 20.3334 6.14382 20.4054 6.07106C22.0508 4.41369 23.9244 3.06745 26.0371 2.04705C28.0863 1.05745 30.2429 0.419587 32.513 0.164264C33.0472 0.104004 33.5827 0.054457 34.1178 0H35.7651C35.8728 0.0165156 35.981 0.0352631 36.0887 0.0477615C36.9049 0.141499 37.7256 0.20042 38.5341 0.333884C41.0564 0.751239 43.4044 1.64398 45.5772 2.97014C48.9089 5.00379 51.448 7.75655 53.1826 11.2222C54.1858 13.2171 54.8299 15.3688 55.0861 17.5811C55.145 18.0904 55.1952 18.5997 55.25 19.1082ZM24.4975 7.55479C24.5306 7.59764 24.5387 7.61773 24.5528 7.62443C25.684 8.17425 26.7652 8.81895 27.7844 9.5514C27.8487 9.59738 28.008 9.57818 28.0859 9.52997C30.887 7.77976 33.9236 7.17582 37.1856 7.74628C40.3819 8.30514 42.983 9.87993 44.9702 12.3952C47.2205 15.2417 48.0783 18.4605 47.4572 22.0417C47.0407 24.4418 46.0657 26.5951 44.4084 28.3989C41.3846 31.6873 37.5979 33.0474 33.1405 32.4715C30.3963 32.1171 28.0275 30.9499 26.067 28.9961C23.5505 26.4898 21.0178 23.9999 18.4942 21.5002C18.1578 21.1673 17.7835 20.8994 17.2991 20.841C16.453 20.7387 15.6853 21.1552 15.32 21.9047C14.9941 22.5738 15.0362 23.3281 15.7433 24.0137C18.5566 26.737 21.3451 29.4853 24.1553 32.2113C24.6363 32.6802 25.1521 33.1131 25.6985 33.5062C27.7514 34.9761 30.0659 35.789 32.5723 36.1161C34.5397 36.3724 36.4916 36.3175 38.4286 35.8881C42.1233 35.0699 45.1839 33.2103 47.5944 30.341C49.5848 27.9699 50.7884 25.2453 51.2081 22.1863C51.4512 20.442 51.4005 18.67 51.0578 16.9419C50.4987 14.1164 49.2865 11.5882 47.344 9.43624C43.638 5.33277 38.9754 3.50087 33.427 3.90974C31.2926 4.06687 29.2737 4.68509 27.3738 5.66576C26.3486 6.19101 25.3842 6.82439 24.4975 7.55479ZM23.14 36.201C23.0636 36.1312 22.9876 36.0611 22.9118 35.9907C21.7616 34.9199 20.605 33.8557 19.4683 32.7711C19.2483 32.5613 19.046 32.459 18.7345 32.4662C17.5834 32.4939 16.4313 32.4988 15.2969 32.2461C9.65659 30.9883 6.38148 24.9413 8.46016 19.6206C10.0998 15.4252 14.6387 12.8702 19.1148 13.658C21.121 14.0111 22.8819 14.8485 24.3273 16.3183C26.09 18.1128 27.9053 19.8558 29.687 21.6319C30.0926 22.0363 30.5584 22.2207 31.1202 22.1417C31.8463 22.0395 32.4243 21.6984 32.6869 20.9963C32.944 20.3053 32.8195 19.6509 32.289 19.1211C30.419 17.253 28.5933 15.3381 26.6477 13.5495C22.8742 10.079 18.4244 9.047 13.503 10.5227C6.8835 12.5059 3.00951 19.2461 4.52189 25.897C5.90029 31.9569 11.2749 36.2099 17.5639 36.2152C19.3198 36.217 21.0762 36.2161 22.8321 36.2152C22.9191 36.2152 23.006 36.2076 23.14 36.201Z" fill="white"/>
</svg>
